# xmcd CD database file
#
# Track frame offsets:
#	150
#	15092
#	38477
#	56005
#	81552
#	97165
#	121227
#	137825
#	155352
#
# Disc length: 2271 seconds
#
# Revision: 0
# Processed by: cddbd v1.5.2PL0 Copyright (c) Steve Scherf et al.
# Submitted via: CDex 1.70beta3
#
DISCID=6b08dd09
DTITLE=Gene Shaw - Carnival Sketches
DYEAR=1964
DGENRE=Jazz
TTITLE0=The Big Sunrise
TTITLE1=Goin' Downtown
TTITLE2=Cha Bossa
TTITLE3=Street Dance
TTITLE4=Goin' Back Home
TTITLE5=Ain't That Soul
TTITLE6=Soulero
TTITLE7=Days Of Wine And Roses
TTITLE8=Samba Nova
EXTD=YEAR: 1964
EXTT0=
EXTT1=
EXTT2=
EXTT3=
EXTT4=
EXTT5=
EXTT6=
EXTT7=
EXTT8=
PLAYORDER=
